0
SECTION
2
HEADER
9
$ACADVER
1
AC1015
9
$INSUNITS
70
6
0
ENDSEC
0
SECTION
2
TABLES
0
TABLE
2
LTYPE
70
1
0
LTYPE
2
CONTINUOUS
70
0
3
Solid line
72
65
73
0
40
0.0
0
ENDTAB
0
TABLE
2
LAYER
70
3
0
LAYER
2
0
70
0
62
7
6
CONTINUOUS
0
LAYER
2
AOS_FLOWLINES
70
0
62
3
6
CONTINUOUS
0
LAYER
2
AOS_META
70
0
62
2
6
CONTINUOUS
0
ENDTAB
0
ENDSEC
0
SECTION
2
ENTITIES
0
CIRCLE
5
200
8
0
10
0.0
20
0.0
30
0.0
40
1.0
0
CIRCLE
5
201
8
0
10
100.0
20
0.0
30
0.0
40
1.0
0
CIRCLE
5
202
8
0
10
100.0
20
100.0
30
0.0
40
1.0
0
CIRCLE
5
203
8
0
10
200.0
20
0.0
30
0.0
40
1.0
0
CIRCLE
5
204
8
0
10
200.0
20
100.0
30
0.0
40
1.0
0
CIRCLE
5
205
8
0
10
300.0
20
0.0
30
0.0
40
1.0
0
LINE
5
210
8
AOS_FLOWLINES
10
0.0
20
0.0
30
0.0
11
100.0
21
0.0
31
0.0
0
LINE
5
211
8
AOS_FLOWLINES
10
100.0
20
0.0
30
0.0
11
100.0
21
100.0
31
0.0
0
LINE
5
212
8
AOS_FLOWLINES
10
100.0
20
0.0
30
0.0
11
200.0
21
0.0
31
0.0
0
LINE
5
213
8
AOS_FLOWLINES
10
200.0
20
0.0
30
0.0
11
200.0
21
100.0
31
0.0
0
LINE
5
214
8
AOS_FLOWLINES
10
200.0
20
0.0
30
0.0
11
300.0
21
0.0
31
0.0
0
TEXT
5
220
8
AOS_META
10
50.0
20
1.0
30
0.0
40
1.0
1
AOS D=0.1016 MAT=ACERO EPS=4.5e-5 ID=T1 MODELO=MONOFASICO_DARCY
0
TEXT
5
221
8
AOS_META
10
101.0
20
50.0
30
0.0
40
1.0
1
AOS D=0.1016 MAT=ACERO EPS=4.5e-5 ID=T2
0
TEXT
5
222
8
AOS_META
10
150.0
20
1.0
30
0.0
40
1.0
1
AOS D=0.1016 MAT=ACERO EPS=4.5e-5 ID=T3
0
TEXT
5
223
8
AOS_META
10
201.0
20
50.0
30
0.0
40
1.0
1
AOS D=0.1016 MAT=ACERO EPS=4.5e-5 ID=T4
0
TEXT
5
224
8
AOS_META
10
250.0
20
1.0
30
0.0
40
1.0
1
AOS D=0.1016 MAT=ACERO EPS=4.5e-5 ID=T5
0
TEXT
5
230
8
AOS_META
10
0.0
20
-1.0
30
0.0
40
1.0
1
AOS P=2000000
0
TEXT
5
231
8
AOS_META
10
100.0
20
99.0
30
0.0
40
1.0
1
AOS Q=0.001
0
TEXT
5
232
8
AOS_META
10
200.0
20
99.0
30
0.0
40
1.0
1
AOS Q=0.001
0
TEXT
5
233
8
AOS_META
10
300.0
20
-1.0
30
0.0
40
1.0
1
AOS Q=0.001
0
TEXT
5
240
8
AOS_META
10
50.0
20
3.0
30
0.0
40
1.0
1
AOS TIPO=FLUIDO API=35 WC=0.5 GLR=0 RHO_O=850 RHO_W=1000 MU=0.001
0
ENDSEC
0
EOF
