0
SECTION
2
HEADER
9
$ACADVER
1
AC1015
9
$INSUNITS
70
6
0
ENDSEC
0
SECTION
2
TABLES
0
TABLE
2
LAYER
70
3
0
LAYER
2
0
70
0
62
7
6
CONTINUOUS
0
LAYER
2
AOS_FLOWLINES
70
0
62
3
6
CONTINUOUS
0
LAYER
2
AOS_META
70
0
62
2
6
CONTINUOUS
0
ENDTAB
0
ENDSEC
0
SECTION
2
ENTITIES
0
LINE
5
B01
8
AOS_FLOWLINES
10
0.0
20
0.0
30
0.0
11
100.0
21
0.0
31
0.0
0
LINE
5
B02
8
AOS_FLOWLINES
10
100.0
20
0.0
30
0.0
11
100.0
21
100.0
31
0.0
0
LINE
5
B03
8
AOS_FLOWLINES
10
100.0
20
100.0
30
0.0
11
0.0
21
100.0
31
0.0
0
LINE
5
B04
8
AOS_FLOWLINES
10
0.0
20
100.0
30
0.0
11
0.0
21
0.0
31
0.0
0
LINE
5
B05
8
AOS_FLOWLINES
10
100.0
20
0.0
30
0.0
11
0.0
21
100.0
31
0.0
0
CIRCLE
5
C01
8
0
10
0.0
20
0.0
30
0.0
40
1.0
0
CIRCLE
5
C02
8
0
10
100.0
20
0.0
30
0.0
40
1.0
0
CIRCLE
5
C03
8
0
10
100.0
20
100.0
30
0.0
40
1.0
0
CIRCLE
5
C04
8
0
10
0.0
20
100.0
30
0.0
40
1.0
0
TEXT
5
T01
8
AOS_META
10
50.0
20
1.0
30
0.0
40
1.0
1
AOS D=0.1016 MAT=ACERO EPS=4.5e-5 ID=DL-T1 MODELO=MONOFASICO_DARCY
0
TEXT
5
T02
8
AOS_META
10
101.0
20
50.0
30
0.0
40
1.0
1
AOS D=0.1016 MAT=ACERO EPS=4.5e-5 ID=DL-T2 MODELO=MONOFASICO_DARCY
0
TEXT
5
T03
8
AOS_META
10
50.0
20
101.0
30
0.0
40
1.0
1
AOS D=0.1016 MAT=ACERO EPS=4.5e-5 ID=DL-T3 MODELO=MONOFASICO_DARCY
0
TEXT
5
T04
8
AOS_META
10
-1.0
20
50.0
30
0.0
40
1.0
1
AOS D=0.1016 MAT=ACERO EPS=4.5e-5 ID=DL-T4 MODELO=MONOFASICO_DARCY
0
TEXT
5
T05
8
AOS_META
10
50.0
20
50.0
30
0.0
40
1.0
1
AOS D=0.1016 MAT=ACERO EPS=4.5e-5 ID=DL-T5 MODELO=MONOFASICO_DARCY
0
TEXT
5
T06
8
AOS_META
10
0.0
20
-2.0
30
0.0
40
1.0
1
AOS P=2500000
0
TEXT
5
T07
8
AOS_META
10
100.0
20
98.0
30
0.0
40
1.0
1
AOS Q=0.0015
0
TEXT
5
T08
8
AOS_META
10
-2.0
20
100.0
30
0.0
40
1.0
1
AOS Q=0.0005
0
TEXT
5
T09
8
AOS_META
10
40.0
20
40.0
30
0.0
40
1.0
1
AOS TIPO=FLUIDO API=35 WC=0.5 GLR=0 RHO_O=850 RHO_W=1000 MU=0.001
0
ENDSEC
0
EOF
