0
SECTION
2
HEADER
9
$ACADVER
1
AC1015
9
$INSUNITS
70
6
0
ENDSEC
0
SECTION
2
TABLES
0
TABLE
2
LAYER
70
5
0
LAYER
2
0
70
0
62
7
6
CONTINUOUS
0
LAYER
2
PROCESO
70
0
62
1
6
CONTINUOUS
0
LAYER
2
INSTRUMENTACION
70
0
62
4
6
CONTINUOUS
0
LAYER
2
AOS_META
70
0
62
2
6
CONTINUOUS
0
LAYER
2
AOS_FLOWLINES
70
0
62
3
6
CONTINUOUS
0
ENDTAB
0
ENDSEC
0
SECTION
2
BLOCKS
0
BLOCK
5
1A
8
0
2
BOMBA_TIPO_A
70
0
10
0.0
20
0.0
30
0.0
0
CIRCLE
5
1B
8
0
10
0.0
20
0.0
30
0.0
40
0.4
0
LINE
5
1C
8
0
10
-0.4
20
0.0
30
0.0
11
0.4
21
0.0
31
0.0
0
ENDBLK
5
1D
8
0
0
ENDSEC
0
SECTION
2
ENTITIES
0
LINE
5
200
8
PROCESO
10
0.0
20
0.0
30
0.0
11
50.0
21
0.0
31
0.0
0
LINE
5
201
8
PROCESO
10
50.0
20
0.0
30
0.0
11
100.0
21
0.0
31
0.0
0
CIRCLE
5
202
8
PROCESO
10
0.0
20
0.0
30
0.0
40
0.5
0
CIRCLE
5
203
8
PROCESO
10
50.0
20
0.0
30
0.0
40
0.5
0
CIRCLE
5
204
8
PROCESO
10
100.0
20
0.0
30
0.0
40
0.5
0
INSERT
5
210
8
INSTRUMENTACION
2
BOMBA_TIPO_A
10
0.0
20
0.0
30
0.0
0
INSERT
5
211
8
INSTRUMENTACION
2
BOMBA_TIPO_A
10
100.0
20
0.0
30
0.0
0
ATTRIB
5
212
8
INSTRUMENTACION
2
ID
1
BOMBA-A
10
0.0
20
1.0
30
0.0
0
ATTRIB
5
213
8
INSTRUMENTACION
2
ID
1
BOMBA-B
10
100.0
20
1.0
30
0.0
0
TEXT
5
220
8
AOS_META
10
25.0
20
1.0
30
0.0
40
0.8
1
AOS D=0.1016 MAT=ACERO EPS=4.5e-5 ID=TR-01
0
TEXT
5
221
8
AOS_META
10
75.0
20
1.0
30
0.0
40
0.8
1
AOS D=0.1016 MAT=ACERO EPS=4.5e-5 ID=TR-02
0
TEXT
5
222
8
AOS_META
10
0.0
20
-1.5
30
0.0
40
0.8
1
AOS P=1500000
0
TEXT
5
223
8
AOS_META
10
100.0
20
-1.5
30
0.0
40
0.8
1
AOS Q=0.002
0
ENDSEC
0
EOF
