0
SECTION
2
HEADER
9
$ACADVER
1
AC1015
9
$INSUNITS
70
6
0
ENDSEC
0
SECTION
2
TABLES
0
TABLE
2
LTYPE
70
1
0
LTYPE
2
CONTINUOUS
70
0
3
Solid line
72
65
73
0
40
0.0
0
ENDTAB
0
TABLE
2
LAYER
70
3
0
LAYER
2
0
70
0
62
7
6
CONTINUOUS
0
LAYER
2
AOS_FLOWLINES
70
0
62
3
6
CONTINUOUS
0
LAYER
2
AOS_META
70
0
62
2
6
CONTINUOUS
0
ENDTAB
0
ENDSEC
0
SECTION
2
ENTITIES
0
LINE
5
100
8
AOS_FLOWLINES
10
0.0
20
0.0
30
0.0
11
100.0
21
0.0
31
0.0
0
CIRCLE
5
101
8
0
10
0.0
20
0.0
30
0.0
40
1.0
0
CIRCLE
5
102
8
0
10
100.0
20
0.0
30
0.0
40
1.0
0
TEXT
5
110
8
AOS_META
10
50.0
20
1.0
30
0.0
40
1.0
1
AOS D=0.1016 MAT=ACERO EPS=4.5e-5 ID=T1 MODELO=MONOFASICO_DARCY
0
TEXT
5
111
8
AOS_META
10
0.0
20
-1.0
30
0.0
40
1.0
1
AOS P=2000000
0
TEXT
5
112
8
AOS_META
10
100.0
20
-1.0
30
0.0
40
1.0
1
AOS Q=0.001
0
TEXT
5
113
8
AOS_META
10
100.0
20
1.0
30
0.0
40
1.0
1
AOS TIPO=BOMBA ID=B-01 CURVA_Q=0|50|100|150 CURVA_H=40|38|32|22 BOMBA_ESTADO=ENCENDIDA
0
TEXT
5
114
8
AOS_META
10
50.0
20
3.0
30
0.0
40
1.0
1
AOS TIPO=FLUIDO API=35 WC=0.5 GLR=0 RHO_O=850 RHO_W=1000 MU=0.001
0
ENDSEC
0
EOF
