  0
SECTION
  2
HEADER
  9
$ACADVER
  1
AC1015
  9
$INSUNITS
 70
6
  0
ENDSEC
  0
SECTION
  2
TABLES
  0
TABLE
  2
LAYER
 70
5
  0
LAYER
  2
0
 70
0
 62
7
  6
CONTINUOUS
  0
LAYER
  2
AOS_NODOS
 70
0
 62
3
  6
CONTINUOUS
  0
LAYER
  2
AOS_TRAMOS
 70
0
 62
1
  6
CONTINUOUS
  0
LAYER
  2
AOS_EQUIPOS
 70
0
 62
5
  6
CONTINUOUS
  0
LAYER
  2
AOS_IDS
 70
0
 62
2
  6
CONTINUOUS
  0
LAYER
  2
AOS_META
 70
0
 62
6
  6
CONTINUOUS
  0
ENDTAB
  0
ENDSEC
  0
SECTION
  2
ENTITIES
  0
LINE
  5
65
  8
AOS_TRAMOS
 10
0.000000
 20
0.000000
 30
0.0
 11
100.000000
 21
0.000000
 31
0.0
  0
TEXT
  5
66
  8
AOS_IDS
 10
50.000000
 20
0.000000
 30
0.0
 40
1.0
  1
T001
  0
TEXT
  5
67
  8
AOS_META
 10
50.000000
 20
1.200000
 30
0.0
 40
0.8
  1
AOS D=0.125 MAT=ACERO EPS=4.5e-05 ID=T001
  0
LINE
  5
68
  8
AOS_TRAMOS
 10
100.750000
 20
1.000000
 30
0.0
 11
112.500000
 21
164.750000
 31
0.0
  0
TEXT
  5
69
  8
AOS_IDS
 10
106.625000
 20
82.875000
 30
0.0
 40
1.0
  1
T002
  0
TEXT
  5
6A
  8
AOS_META
 10
106.625000
 20
84.075000
 30
0.0
 40
0.8
  1
AOS D=0.1 MAT=ACERO EPS=4.5e-05 ID=T002
  0
LINE
  5
6B
  8
AOS_TRAMOS
 10
112.500000
 20
164.750000
 30
0.0
 11
17.750000
 21
194.500000
 31
0.0
  0
TEXT
  5
6C
  8
AOS_IDS
 10
65.125000
 20
179.625000
 30
0.0
 40
1.0
  1
T003
  0
TEXT
  5
6D
  8
AOS_META
 10
65.125000
 20
180.825000
 30
0.0
 40
0.8
  1
AOS D=0.1 MAT=ACERO EPS=4.5e-05 ID=T003
  0
CIRCLE
  5
6E
  8
AOS_NODOS
 10
0.000000
 20
0.000000
 30
0.0
 40
0.5
  0
TEXT
  5
6F
  8
AOS_IDS
 10
0.600000
 20
0.600000
 30
0.0
 40
1.0
  1
N001
  0
CIRCLE
  5
70
  8
AOS_NODOS
 10
100.000000
 20
0.000000
 30
0.0
 40
0.5
  0
TEXT
  5
71
  8
AOS_IDS
 10
100.600000
 20
0.600000
 30
0.0
 40
1.0
  1
N002
  0
CIRCLE
  5
72
  8
AOS_NODOS
 10
100.750000
 20
1.000000
 30
0.0
 40
0.5
  0
TEXT
  5
73
  8
AOS_IDS
 10
101.350000
 20
1.600000
 30
0.0
 40
1.0
  1
N003
  0
CIRCLE
  5
74
  8
AOS_NODOS
 10
112.500000
 20
164.750000
 30
0.0
 40
0.5
  0
TEXT
  5
75
  8
AOS_IDS
 10
113.100000
 20
165.350000
 30
0.0
 40
1.0
  1
N004
  0
CIRCLE
  5
76
  8
AOS_NODOS
 10
17.750000
 20
194.500000
 30
0.0
 40
0.5
  0
TEXT
  5
77
  8
AOS_IDS
 10
18.350000
 20
195.100000
 30
0.0
 40
1.0
  1
N005
  0
TEXT
  5
78
  8
AOS_EQUIPOS
 10
0.000000
 20
-1.500000
 30
0.0
 40
1.2
  1
WELL-MX01
  0
TEXT
  5
79
  8
AOS_META
 10
0.000000
 20
-2.500000
 30
0.0
 40
0.8
  1
AOS P=1.5e+06
  0
TEXT
  5
7A
  8
AOS_META
 10
17.750000
 20
192.000000
 30
0.0
 40
0.8
  1
AOS Q=0.02
  0
ENDSEC
  0
EOF
